<svg width="22" height="20" viewBox="0 0 22 20" fill="none" xmlns="http://www.w3.org/2000/svg">
<path d="M21.6562 0H0.21875C0.0984375 0 0 0.0984375 0 0.21875V1.96875C0 2.08906 0.0984375 2.1875 0.21875 2.1875H21.6562C21.7766 2.1875 21.875 2.08906 21.875 1.96875V0.21875C21.875 0.0984375 21.7766 0 21.6562 0ZM21.6562 17.0625H0.21875C0.0984375 17.0625 0 17.1609 0 17.2812V19.0312C0 19.1516 0.0984375 19.25 0.21875 19.25H21.6562C21.7766 19.25 21.875 19.1516 21.875 19.0312V17.2812C21.875 17.1609 21.7766 17.0625 21.6562 17.0625ZM21.6562 8.53125H0.21875C0.0984375 8.53125 0 8.62969 0 8.75V10.5C0 10.6203 0.0984375 10.7188 0.21875 10.7188H21.6562C21.7766 10.7188 21.875 10.6203 21.875 10.5V8.75C21.875 8.62969 21.7766 8.53125 21.6562 8.53125Z" fill="#5D405C"/>
</svg>
