<svg width="14" height="12" viewBox="0 0 14 12" fill="none" xmlns="http://www.w3.org/2000/svg">
<path d="M0 0V0.746667C0.00125235 0.83459 0.037195 0.918457 0.0999997 0.98L4.95333 5.88667C5.01614 5.94821 5.05208 6.03208 5.05333 6.12V10.7133C5.05321 10.7758 5.07064 10.8371 5.10365 10.8901C5.13665 10.9431 5.1839 10.9858 5.24 11.0133L7.87333 11.9533C7.9242 11.9783 7.98059 11.9898 8.03716 11.9869C8.09373 11.984 8.14863 11.9667 8.19667 11.9367C8.2447 11.9066 8.2843 11.8649 8.31171 11.8153C8.33912 11.7657 8.35345 11.71 8.35333 11.6533V6.06C8.36256 5.9699 8.4054 5.88658 8.47333 5.82667L13.22 0.993333C13.2828 0.93179 13.3187 0.847923 13.32 0.76V0H0Z" fill="white"/>
</svg>
